<?xml version="1.0" encoding="UTF-8"?>
<!DOCTYPE svg PUBLIC "-//W3C//DTD SVG 1.1//EN" "http://www.w3.org/Graphics/SVG/1.1/DTD/svg11.dtd">
<svg xmlns="http://www.w3.org/2000/svg" version="1.1" width="942px" height="480px" style="shape-rendering:geometricPrecision; text-rendering:geometricPrecision; image-rendering:optimizeQuality; fill-rule:evenodd; clip-rule:evenodd" xmlns:xlink="http://www.w3.org/1999/xlink">
<g><path style="opacity:0.981" fill="#6699cc" d="M 157.5,150.5 C 179.167,150.5 200.833,150.5 222.5,150.5C 222.333,166.17 222.5,181.837 223,197.5C 244.008,184.342 265.175,184.175 286.5,197C 296.783,207.062 303.283,219.229 306,233.5C 306.93,238.799 307.597,244.133 308,249.5C 308.433,277.182 307.933,304.849 306.5,332.5C 288.167,332.5 269.833,332.5 251.5,332.5C 251.876,311.139 251.376,289.805 250,268.5C 247.012,255.497 240.012,252.497 229,259.5C 227.438,261.957 226.438,264.624 226,267.5C 225.5,289.164 225.333,310.831 225.5,332.5C 202.5,332.5 179.5,332.5 156.5,332.5C 156.848,271.833 157.181,211.167 157.5,150.5 Z"/></g>
<g><path style="opacity:0.983" fill="#6699cc" d="M 653.5,150.5 C 670.503,150.333 687.503,150.5 704.5,151C 754.88,160.948 774.046,190.781 762,240.5C 750.449,265.7 730.949,280.867 703.5,286C 702.62,287.356 702.286,288.856 702.5,290.5C 720.167,290.5 737.833,290.5 755.5,290.5C 756.701,304.496 756.701,318.496 755.5,332.5C 709.833,332.5 664.167,332.5 618.5,332.5C 616.995,318.465 617.329,304.465 619.5,290.5C 637.7,286.485 653.533,278.152 667,265.5C 671.968,257.513 671.634,249.846 666,242.5C 658.592,235.579 649.759,231.746 639.5,231C 632.54,229.913 625.54,229.413 618.5,229.5C 616.894,205.13 617.227,180.796 619.5,156.5C 630.786,153.512 642.119,151.512 653.5,150.5 Z"/></g>
<g><path style="opacity:0.977" fill="#6699cc" d="M 835.5,152.5 C 846.505,152.333 857.505,152.5 868.5,153C 900.284,156.451 917.617,174.118 920.5,206C 920.097,221.811 913.431,234.144 900.5,243C 921.635,253.771 930.135,270.937 926,294.5C 923.567,312.922 913.734,325.422 896.5,332C 866.625,339.839 836.958,339.172 807.5,330C 785.366,317.882 777.199,299.382 783,274.5C 786.486,262.519 792.986,252.519 802.5,244.5C 790.826,233.515 785.159,219.848 785.5,203.5C 786.285,181.747 796.618,166.581 816.5,158C 822.828,155.673 829.162,153.84 835.5,152.5 Z M 847.5,209.5 C 856.128,207.693 863.295,210.026 869,216.5C 872.559,225.877 869.725,232.377 860.5,236C 852.503,238.045 845.669,236.212 840,230.5C 835.93,221.096 838.43,214.096 847.5,209.5 Z M 850.5,256.5 C 860.903,254.683 869.07,258.016 875,266.5C 877.576,275.847 874.41,282.347 865.5,286C 858.285,287.113 851.285,286.446 844.5,284C 836.318,275.441 836.651,267.108 845.5,259C 847.315,258.243 848.981,257.41 850.5,256.5 Z"/></g>
<g><path style="opacity:0.985" fill="#6699cc" d="M 342.5,171.5 C 363.167,171.5 383.833,171.5 404.5,171.5C 404.5,178.167 404.5,184.833 404.5,191.5C 418.5,191.5 432.5,191.5 446.5,191.5C 446.5,215.833 446.5,240.167 446.5,264.5C 432.167,264.5 417.833,264.5 403.5,264.5C 402.926,292.925 416.926,306.591 445.5,305.5C 445.5,314.5 445.5,323.5 445.5,332.5C 427.164,332.667 408.83,332.5 390.5,332C 361.887,330.718 346.387,315.885 344,287.5C 343.5,280.174 343.334,272.841 343.5,265.5C 337.5,265.5 331.5,265.5 325.5,265.5C 324.494,241.508 324.328,217.508 325,193.5C 330.197,191.58 335.697,190.913 341.5,191.5C 342.38,184.877 342.713,178.211 342.5,171.5 Z"/></g>
<g><path style="opacity:0.98" fill="#6699cc" d="M 56.5,188.5 C 67.1719,188.333 77.8385,188.5 88.5,189C 119.243,192.783 137.076,209.95 142,240.5C 145.693,263.183 143.36,285.183 135,306.5C 125.484,322.521 111.317,331.355 92.5,333C 80.5,333.667 68.5,333.667 56.5,333C 25.2265,331.061 7.39318,314.561 3,283.5C 1.04559,268.494 1.04559,253.494 3,238.5C 8.82787,208.835 26.6612,192.168 56.5,188.5 Z M 73.5,260.5 C 95.9079,260.99 103.075,271.657 95,292.5C 88.5153,298.114 81.0153,299.948 72.5,298C 61.4456,292.384 57.6123,283.551 61,271.5C 63.5048,265.822 67.6714,262.155 73.5,260.5 Z"/></g>
<g><path style="opacity:0.979" fill="#6699cc" d="M 525.5,193.5 C 544.353,191.309 562.353,194.142 579.5,202C 593.401,212.639 600.235,226.806 600,244.5C 599.868,274.495 599.701,304.495 599.5,334.5C 564.498,334.667 529.498,334.5 494.5,334C 477.823,331.651 466.989,322.484 462,306.5C 452.834,274.326 464.334,253.826 496.5,245C 510.503,241.877 524.503,241.377 538.5,243.5C 538.176,233.34 532.843,227.84 522.5,227C 504.07,224.6 486.07,226.433 468.5,232.5C 468.187,225.245 468.52,218.079 469.5,211C 476.72,206.702 484.386,203.369 492.5,201C 503.474,197.775 514.474,195.275 525.5,193.5 Z M 525.5,281.5 C 530.404,281.517 534.904,282.851 539,285.5C 539.2,289.753 539.7,293.92 540.5,298C 540.145,303.877 539.145,309.543 537.5,315C 522.906,317.546 514.572,311.546 512.5,297C 513.472,288.872 517.806,283.705 525.5,281.5 Z"/></g>
</svg>
